<svg data-v-423bf9ae="" xmlns="http://www.w3.org/2000/svg" viewBox="0 0 612 90" class="iconLeft"><!----><!----><!----><g data-v-423bf9ae="" id="04adbb77-799b-4369-8427-502b86236bd6" fill="black" transform="matrix(5.830903811703725,0,0,5.830903811703725,105.0466463211294,-3.1341114348053267)"><path d="M3.74 13.33C6.01 13.30 7.15 12.03 7.15 10.47C7.15 8.37 5.67 7.76 4.42 7.24C3.51 6.86 2.73 6.54 2.73 5.73C2.73 5.01 3.28 4.65 4.34 4.65C5.15 4.65 5.95 4.87 6.55 5.80L6.58 5.80L6.40 3.50C5.59 3.29 4.93 3.21 4.20 3.21C2.03 3.21 0.84 4.48 0.84 5.87C0.84 7.81 2.20 8.39 3.42 8.89C4.37 9.28 5.22 9.65 5.22 10.61C5.22 11.37 4.73 11.84 3.60 11.87C2.45 11.90 1.54 11.49 0.70 10.40L0.67 10.42L0.91 12.77C1.54 13.15 2.60 13.34 3.74 13.33ZM16.02 10.82L13.96 5.05C13.66 4.23 13.94 3.65 14.21 3.42L14.21 3.39L10.50 3.39L10.50 3.42C10.77 3.64 11.03 4.23 10.75 5.05L8.75 10.82C8.37 11.90 7.77 12.75 7.39 13.09L7.39 13.12L10.33 13.12L10.33 13.09C10.14 12.91 10.00 12.33 10.36 11.37L10.49 11.03L14.10 11.03L14.22 11.37C14.57 12.33 14.46 12.91 14.22 13.09L14.22 13.12L17.39 13.12L17.39 13.09C17.00 12.77 16.39 11.90 16.02 10.82ZM12.25 5.25L12.31 5.25C12.45 6.33 12.80 7.27 13.12 8.18L13.64 9.66L10.95 9.66L11.47 8.18C11.79 7.27 12.12 6.33 12.25 5.25ZM20.64 11.03L20.64 5.49C20.64 4.34 21.00 3.65 21.32 3.42L21.32 3.39L17.96 3.39L17.96 3.42C18.33 3.65 18.72 4.33 18.72 5.43L18.72 11.02C18.72 12.17 18.31 12.85 17.96 13.09L17.96 13.12L21.32 13.12L21.32 13.09C21.00 12.85 20.64 12.18 20.64 11.03ZM25.56 11.54L22.90 7.64L24.88 4.97C25.33 4.35 25.94 3.70 26.53 3.42L26.53 3.39L23.62 3.39C23.63 3.65 23.51 4.00 23.16 4.51L20.79 7.85L23.62 12.05C23.94 12.53 24.22 13.06 24.30 13.38L27.12 12.91L27.12 12.88C26.43 12.60 26.04 12.24 25.56 11.54ZM35 10.82L32.94 5.05C32.65 4.23 32.93 3.65 33.19 3.42L33.19 3.39L29.48 3.39L29.48 3.42C29.75 3.64 30.02 4.23 29.74 5.05L27.73 10.82C27.36 11.90 26.75 12.75 26.38 13.09L26.38 13.12L29.32 13.12L29.32 13.09C29.12 12.91 28.98 12.33 29.34 11.37L29.47 11.03L33.08 11.03L33.21 11.37C33.56 12.33 33.45 12.91 33.21 13.09L33.21 13.12L36.37 13.12L36.37 13.09C35.98 12.77 35.38 11.90 35 10.82ZM31.23 5.25L31.29 5.25C31.43 6.33 31.78 7.27 32.10 8.18L32.62 9.66L29.93 9.66L30.45 8.18C30.77 7.27 31.11 6.33 31.23 5.25ZM43.46 3.28C42.99 3.36 42.49 3.39 41.65 3.39L36.96 3.39L36.96 3.42C37.35 3.64 37.70 4.12 37.70 5.49L37.70 11.02C37.70 12.17 37.30 12.85 36.95 13.09L36.95 13.12L40.38 13.12L40.38 13.09C40.01 12.85 39.62 12.18 39.62 11.02L39.62 8.79L40.95 8.79C41.65 8.79 42.29 9.20 42.48 9.80L42.50 9.80L42.95 7.28C42.53 7.36 41.86 7.39 40.85 7.39L39.62 7.39L39.62 4.79L41.19 4.79C42.28 4.79 43.18 5.08 43.68 5.91L43.71 5.89ZM49.78 13.40C52.91 13.40 54.99 11.27 54.99 8.15C54.99 5.14 52.99 3.11 49.99 3.11C46.76 3.11 44.80 5.19 44.80 8.34C44.80 11.21 46.65 13.40 49.78 13.40ZM49.92 11.94C47.92 11.94 46.89 10.50 46.89 8.20C46.89 6.02 48.01 4.56 49.85 4.56C51.76 4.56 52.91 5.92 52.91 8.29C52.91 10.53 51.65 11.94 49.92 11.94ZM56.43 13.12L59.67 13.12L59.67 13.09C59.30 12.85 58.95 12.18 58.95 11.02L58.95 8.64C58.95 7.63 58.93 6.72 58.70 5.39L58.76 5.39C59.18 6.68 59.54 7.50 60.21 8.58L62.19 11.79C62.47 12.24 62.73 12.74 62.89 13.12L65.84 13.12L65.84 13.09C65.48 12.85 65.09 12.17 65.09 11.02L65.09 5.49C65.09 4.34 65.48 3.65 65.84 3.42L65.84 3.39L62.61 3.39L62.61 3.42C62.97 3.65 63.32 4.33 63.32 5.49L63.32 8.01C63.32 8.79 63.35 9.77 63.55 10.89L63.49 10.89C63.07 9.81 62.62 8.82 62.20 8.12L60.19 4.73C59.72 3.96 59.64 3.67 59.61 3.39L56.43 3.39L56.43 3.42C56.95 3.77 57.19 4.66 57.19 5.42L57.19 11.02C57.19 12.17 56.78 12.85 56.43 13.09ZM75.01 10.82L72.95 5.05C72.66 4.23 72.94 3.65 73.21 3.42L73.21 3.39L69.50 3.39L69.50 3.42C69.76 3.64 70.03 4.23 69.75 5.05L67.75 10.82C67.37 11.90 66.77 12.75 66.39 13.09L66.39 13.12L69.33 13.12L69.33 13.09C69.13 12.91 68.99 12.33 69.36 11.37L69.48 11.03L73.09 11.03L73.22 11.37C73.57 12.33 73.46 12.91 73.22 13.09L73.22 13.12L76.38 13.12L76.38 13.09C75.99 12.77 75.39 11.90 75.01 10.82ZM71.25 5.25L71.30 5.25C71.44 6.33 71.79 7.27 72.11 8.18L72.63 9.66L69.94 9.66L70.46 8.18C70.78 7.27 71.12 6.33 71.25 5.25ZM81.73 13.40C84.85 13.40 86.94 11.27 86.94 8.15C86.94 5.14 84.94 3.11 81.94 3.11C78.71 3.11 76.75 5.19 76.75 8.34C76.75 11.21 78.60 13.40 81.73 13.40ZM81.87 11.94C79.87 11.94 78.83 10.50 78.83 8.20C78.83 6.02 79.95 4.56 81.80 4.56C83.71 4.56 84.85 5.92 84.85 8.29C84.85 10.53 83.59 11.94 81.87 11.94Z"></path></g><!----><g data-v-423bf9ae="" id="a7b76a23-4871-4878-83e0-03e61a707535" transform="matrix(1.4825308269913189,0,0,1.4825308269913189,-2.4417329773527356,-1.6239123510165854)" stroke="none" fill="black"><path d="M3 62h12a.993.993 0 0 0 .985-.927l12.943.925L29 62c.123 0 .244-.022.359-.066l13-5a1 1 0 0 0 .366-.245l19-20c.176-.186.275-.433.275-.689 0-1.747-.863-3.067-2.258-3.657L61.8 29.6A.999.999 0 0 0 61 28H42.409a8.982 8.982 0 0 0 3.077-4.817L46.281 20H51a1 1 0 0 0 1-1v-6a1 1 0 0 0-1-1h-3.307a9.082 9.082 0 0 0-2.58-5.367A8.921 8.921 0 0 0 38.754 4a.997.997 0 0 0-.406.086l-1.477.656a11.95 11.95 0 0 1-3.872.98V4.414l1.707-1.707-1.414-1.414-2 2A1 1 0 0 0 31 4v1.722a11.956 11.956 0 0 1-3.872-.98l-1.477-.656A.988.988 0 0 0 25.246 4a8.921 8.921 0 0 0-6.359 2.633A8.9 8.9 0 0 0 17.769 8H17c-2.757 0-5 2.243-5 5v2c0 2.757 2.243 5 5 5h.719l.796 3.183A8.976 8.976 0 0 0 21.592 28H3a1.001 1.001 0 0 0-.8 1.6l3 4a1 1 0 0 0 .8.4h15.556A3.959 3.959 0 0 0 21 36v5.54l-5 4.286V43a1 1 0 0 0-1-1H3a1 1 0 0 0-1 1v18a1 1 0 0 0 1 1zm26-10.941v-.645l12.638-12.638c.511-.324 1.3-.423 1.654-.069.393.393.393 1.193 0 1.586l-5.701 5.701A1167.1 1167.1 0 0 0 29 51.059zm15.707-14.766c-1.191-1.191-3.095-.946-4.283-.111a.927.927 0 0 0-.131.111L29 47.586V36c0-.732-.212-1.409-.556-2H54.01c-2.278 1.382-5.305 3.372-8.623 5.621.408-1.119.185-2.463-.68-3.328zM25.041 6.003l1.276.567a14.02 14.02 0 0 0 11.367 0l1.276-.567a6.932 6.932 0 0 1 4.738 2.042A7.077 7.077 0 0 1 45.682 12H18.318c.048-.33.129-.653.224-.973.019-.064.036-.128.057-.192a6.88 6.88 0 0 1 .349-.86c.04-.083.084-.164.127-.245a7.028 7.028 0 0 1 1.228-1.685 6.93 6.93 0 0 1 4.738-2.042zM14 15v-2a3.005 3.005 0 0 1 2.763-2.991c-.025.071-.043.144-.067.216a9.137 9.137 0 0 0-.227.826c-.022.099-.046.198-.065.298a8.486 8.486 0 0 0-.085.569c-.01.085-.025.168-.033.253a8.836 8.836 0 0 0-.041.83 1.003 1.003 0 0 0 1 .998H20v2h2v-2h3v2h2v-2h3v2h2v-2h3v2h2v-2h3v2h2v-2h3v2h2v-2h3v4H17A3.002 3.002 0 0 1 14 15zm6.455 7.698L19.781 20h24.438l-.674 2.698A6.99 6.99 0 0 1 36.754 28h-9.508a6.99 6.99 0 0 1-6.791-5.302zM5 30h54l-1.5 2h-51L5 30zm17.651 12.759A.998.998 0 0 0 23 42v-6c0-1.103.897-2 2-2s2 .897 2 2v17c0 .375.209.718.542.889a.988.988 0 0 0 .417.101c.014.001.027.01.041.01.011 0 .022-.005.033-.005a.95.95 0 0 0 .191-.03c.031-.007.063-.009.094-.02a.969.969 0 0 0 .263-.132c.046-.033 4.641-3.313 10.16-7.163l.023-.019C47.567 40.498 56.581 34.417 58.065 34c1.438.028 1.82.965 1.91 1.626L41.431 55.147l-12.582 4.839L16 59.069V48.46l6.651-5.701zM4 44h10v16H4V44z"></path><path d="M9 46c-1.654 0-3 1.346-3 3s1.346 3 3 3 3-1.346 3-3-1.346-3-3-3zm0 4c-.551 0-1-.449-1-1s.449-1 1-1 1 .449 1 1-.449 1-1 1z"></path></g><!----></svg>